<svg width="20" height="20" viewBox="0 0 20 20" fill="none" xmlns="http://www.w3.org/2000/svg">
<g clip-path="url(#clip0_33_370)">
<path d="M17.3667 3.84319C16.9411 3.41736 16.4357 3.07956 15.8795 2.84909C15.3233 2.61862 14.7271 2.5 14.1251 2.5C13.523 2.5 12.9268 2.61862 12.3706 2.84909C11.8144 3.07956 11.309 3.41736 10.8834 3.84319L10.0001 4.72652L9.11673 3.84319C8.25698 2.98344 7.09092 2.50045 5.87506 2.50045C4.6592 2.50045 3.49314 2.98344 2.63339 3.84319C1.77365 4.70293 1.29065 5.86899 1.29065 7.08485C1.29065 8.30072 1.77365 9.46678 2.63339 10.3265L3.51672 11.2099L10.0001 17.6932L16.4834 11.2099L17.3667 10.3265C17.7926 9.90089 18.1304 9.39553 18.3608 8.83932C18.5913 8.2831 18.7099 7.68693 18.7099 7.08485C18.7099 6.48278 18.5913 5.88661 18.3608 5.33039C18.1304 4.77418 17.7926 4.26882 17.3667 3.84319Z" fill="black" stroke="black" stroke-width="1.66667" stroke-linecap="round" stroke-linejoin="round"/>
</g>
<defs>
<clipPath id="clip0_33_370">
<rect width="20" height="20" fill="white"/>
</clipPath>
</defs>
</svg>
