<svg width="20" height="20" viewBox="0 0 20 20" fill="none" xmlns="http://www.w3.org/2000/svg">
<g clip-path="url(#clip0_33_422)">
<path d="M8.2184 16.1482V3.96644C8.2184 3.48588 7.82883 3.09631 7.34828 3.09631C6.86772 3.09631 6.47815 3.48588 6.47815 3.96644V16.1482C6.47815 16.6288 6.86772 17.0184 7.34828 17.0184C7.82883 17.0184 8.2184 16.6288 8.2184 16.1482Z" fill="black"/>
<path d="M13.4392 16.1482V3.96644C13.4392 3.48588 13.0497 3.09631 12.5691 3.09631C12.0885 3.09631 11.699 3.48588 11.699 3.96644V16.1482C11.699 16.6288 12.0885 17.0184 12.5691 17.0184C13.0497 17.0184 13.4392 16.6288 13.4392 16.1482Z" fill="black"/>
</g>
<defs>
<clipPath id="clip0_33_422">
<rect width="20" height="20" fill="white"/>
</clipPath>
</defs>
</svg>
