<svg width="144" height="27" viewBox="0 0 144 27" fill="none" xmlns="http://www.w3.org/2000/svg">
<g clip-path="url(#clip0_43_129)">
<path d="M0.366699 3.60003V9.10003C0.366699 9.19728 0.40533 9.29054 0.474093 9.35931C0.542857 9.42807 0.63612 9.4667 0.733366 9.4667H1.4667C1.56395 9.4667 1.65721 9.42807 1.72597 9.35931C1.79474 9.29054 1.83337 9.19728 1.83337 9.10003V4.70003C1.83337 4.60279 1.872 4.50952 1.94076 4.44076C2.00952 4.372 2.10279 4.33337 2.20003 4.33337H6.60003C6.69728 4.33337 6.79054 4.29474 6.85931 4.22597C6.92807 4.15721 6.9667 4.06395 6.9667 3.9667V3.23337C6.9667 3.13612 6.92807 3.04286 6.85931 2.97409C6.79054 2.90533 6.69728 2.8667 6.60003 2.8667H1.10003C0.90554 2.8667 0.719014 2.94396 0.581488 3.08149C0.443961 3.21901 0.366699 3.40554 0.366699 3.60003Z" fill="white"/>
<path d="M20.5333 9.4667H21.2667C21.3639 9.4667 21.4572 9.42807 21.5259 9.35931C21.5947 9.29054 21.6333 9.19728 21.6333 9.10003V3.60003C21.6333 3.40554 21.5561 3.21901 21.4185 3.08149C21.281 2.94396 21.0945 2.8667 20.9 2.8667H15.4C15.3027 2.8667 15.2095 2.90533 15.1407 2.97409C15.072 3.04286 15.0333 3.13612 15.0333 3.23337V3.9667C15.0333 4.06395 15.072 4.15721 15.1407 4.22597C15.2095 4.29474 15.3027 4.33337 15.4 4.33337H19.8C19.8972 4.33337 19.9905 4.372 20.0593 4.44076C20.128 4.50952 20.1667 4.60279 20.1667 4.70003V9.10003C20.1667 9.19728 20.2053 9.29054 20.2741 9.35931C20.3428 9.42807 20.4361 9.4667 20.5333 9.4667Z" fill="white"/>
<path d="M6.60003 24.1332C6.69728 24.1332 6.79054 24.0946 6.85931 24.0258C6.92807 23.957 6.9667 23.8638 6.9667 23.7665V23.0332C6.9667 22.936 6.92807 22.8427 6.85931 22.7739C6.79054 22.7052 6.69728 22.6665 6.60003 22.6665H2.20003C2.10279 22.6665 2.00952 22.6279 1.94076 22.5591C1.872 22.4904 1.83337 22.3971 1.83337 22.2999V17.8999C1.83337 17.8026 1.79474 17.7094 1.72597 17.6406C1.65721 17.5718 1.56395 17.5332 1.4667 17.5332H0.733366C0.63612 17.5332 0.542857 17.5718 0.474093 17.6406C0.40533 17.7094 0.366699 17.8026 0.366699 17.8999V23.3999C0.366699 23.5944 0.443961 23.7809 0.581488 23.9184C0.719014 24.0559 0.90554 24.1332 1.10003 24.1332H6.60003Z" fill="white"/>
<path d="M21.2667 17.5332H20.5333C20.4361 17.5332 20.3428 17.5718 20.2741 17.6406C20.2053 17.7094 20.1667 17.8026 20.1667 17.8999V22.2999C20.1667 22.3971 20.128 22.4904 20.0593 22.5591C19.9905 22.6279 19.8972 22.6665 19.8 22.6665H15.4C15.3027 22.6665 15.2095 22.7052 15.1407 22.7739C15.072 22.8427 15.0333 22.936 15.0333 23.0332V23.7665C15.0333 23.8638 15.072 23.957 15.1407 24.0258C15.2095 24.0946 15.3027 24.1332 15.4 24.1332H20.9C21.0945 24.1332 21.281 24.0559 21.4185 23.9184C21.5561 23.7809 21.6333 23.5944 21.6333 23.3999V17.8999C21.6333 17.8026 21.5947 17.7094 21.5259 17.6406C21.4572 17.5718 21.3639 17.5332 21.2667 17.5332Z" fill="white"/>
<path d="M21.6333 13.1333H19.3732C19.0307 11.2358 18.8599 10.5666 18.3333 10.5666C17.71 10.5666 17.4632 11.4448 17.2051 13.1333H15.91C15.5672 10.1582 15.3633 9.09997 14.6667 9.09997C14.0092 9.09997 13.7969 10.1175 13.4908 13.1333H12.2522C11.8837 8.7652 11.6967 7.6333 10.9978 7.6333C10.2989 7.6333 10.1123 8.7652 9.74417 13.1333H8.50887C8.2027 10.1175 7.9904 9.09997 7.33333 9.09997C6.63667 9.09997 6.4328 10.1582 6.08997 13.1333H4.7949C4.53677 11.4466 4.29 10.5666 3.66667 10.5666C3.14013 10.5666 2.97 11.2358 2.6268 13.1333H0.366667C0.269421 13.1333 0.176158 13.1719 0.107394 13.2407C0.0386308 13.3095 0 13.4027 0 13.5C0 13.5972 0.0386308 13.6905 0.107394 13.7592C0.176158 13.828 0.269421 13.8666 0.366667 13.8666H1.0142C1.14089 14.1873 1.23379 14.5203 1.2914 14.8603C1.47253 15.7044 1.62837 16.4333 2.2 16.4333C2.72653 16.4333 2.89667 15.7641 3.23987 13.8666H4.16167C4.1822 14.0111 4.202 14.1519 4.22033 14.2839C4.54997 16.6599 4.75713 17.9 5.5 17.9C6.19667 17.9 6.40053 16.8418 6.74337 13.8666H7.84667C7.86023 14.0038 7.87307 14.1387 7.88553 14.2674C8.25403 18.12 8.43517 19.3666 9.16667 19.3666C9.8659 19.3666 10.0518 18.2347 10.4199 13.8666H11.5801C11.9467 18.2344 12.1348 19.3666 12.837 19.3666C13.5667 19.3666 13.7474 18.12 14.1178 14.27C14.1302 14.1413 14.1431 14.006 14.1566 13.8685H15.2585C15.5995 16.8418 15.8033 17.9 16.5 17.9C17.2429 17.9 17.45 16.6599 17.7797 14.2839C17.798 14.1519 17.8163 14.0111 17.8383 13.8666H18.7601C19.1026 15.7641 19.2735 16.4333 19.8 16.4333C20.3716 16.4333 20.5275 15.7044 20.7086 14.8603C20.7662 14.5203 20.8591 14.1873 20.9858 13.8666H21.6333C21.7306 13.8666 21.8238 13.828 21.8926 13.7592C21.9614 13.6905 22 13.5972 22 13.5C22 13.4027 21.9614 13.3095 21.8926 13.2407C21.8238 13.1719 21.7306 13.1333 21.6333 13.1333Z" fill="white"/>
</g>
<path d="M48.364 11.419C48.378 12.525 48.196 13.547 47.818 14.485C47.44 15.423 46.908 16.228 46.222 16.9C45.536 17.572 44.724 18.097 43.786 18.475C42.848 18.839 41.826 19.014 40.72 19H35.827V3.817H40.72C41.812 3.803 42.827 3.985 43.765 4.363C44.717 4.727 45.529 5.252 46.201 5.938C46.887 6.61 47.419 7.415 47.797 8.353C48.189 9.291 48.378 10.313 48.364 11.419ZM46.18 11.419C46.18 10.579 46.047 9.816 45.781 9.13C45.515 8.43 45.144 7.835 44.668 7.345C44.192 6.841 43.618 6.449 42.946 6.169C42.274 5.889 41.525 5.749 40.699 5.749H37.885V17.068H40.699C41.525 17.068 42.274 16.935 42.946 16.669C43.618 16.389 44.192 16.004 44.668 15.514C45.144 15.01 45.515 14.415 45.781 13.729C46.047 13.029 46.18 12.259 46.18 11.419ZM57.3218 19C57.2938 18.846 57.2658 18.657 57.2378 18.433C57.2098 18.195 57.1818 17.922 57.1538 17.614C56.8598 18.104 56.4118 18.503 55.8098 18.811C55.2218 19.105 54.5428 19.252 53.7728 19.252C52.6388 19.252 51.7288 18.965 51.0428 18.391C50.3708 17.803 50.0348 17.005 50.0348 15.997C50.0348 14.989 50.3708 14.198 51.0428 13.624C51.7288 13.05 52.6458 12.763 53.7938 12.763H57.1118V12.343C57.1118 11.545 56.8948 10.971 56.4608 10.621C56.0268 10.257 55.4318 10.075 54.6758 10.075C53.3318 10.075 52.3938 10.621 51.8618 11.713L50.3918 10.852C50.8118 10.04 51.3928 9.438 52.1348 9.046C52.8908 8.64 53.7728 8.437 54.7808 8.437C55.4108 8.437 55.9848 8.514 56.5028 8.668C57.0348 8.822 57.4828 9.067 57.8468 9.403C58.2248 9.739 58.5188 10.166 58.7288 10.684C58.9388 11.188 59.0438 11.797 59.0438 12.511V16.879C59.0438 17.299 59.0578 17.712 59.0858 18.118C59.1278 18.524 59.1768 18.818 59.2328 19H57.3218ZM57.1328 14.212H54.2348C53.5208 14.212 52.9748 14.373 52.5968 14.695C52.2188 15.003 52.0298 15.43 52.0298 15.976C52.0298 16.536 52.2258 16.97 52.6178 17.278C53.0098 17.572 53.5418 17.719 54.2138 17.719C55.0958 17.719 55.8028 17.446 56.3348 16.9C56.8668 16.34 57.1328 15.535 57.1328 14.485V14.212ZM66.506 8.605C66.884 8.605 67.262 8.647 67.64 8.731V10.558C67.248 10.474 66.877 10.432 66.527 10.432C65.645 10.432 64.959 10.705 64.469 11.251C63.979 11.797 63.734 12.553 63.734 13.519V19H61.739V8.752H63.587L63.692 10.012C63.902 9.55 64.259 9.2 64.763 8.962C65.281 8.724 65.862 8.605 66.506 8.605ZM69.574 19V3.544H71.569V13.477L76.105 8.731H78.604L74.236 13.309L78.478 19H76.084L72.934 14.653L71.569 16.081V19H69.574ZM89.7921 20.806C89.7921 21.926 89.2951 22.731 88.3011 23.221C87.3211 23.725 86.0471 23.984 84.4791 23.998C82.9531 23.998 81.7141 23.788 80.7621 23.368C79.8101 22.962 79.3341 22.276 79.3341 21.31C79.3341 20.82 79.4601 20.379 79.7121 19.987C79.9781 19.595 80.3351 19.301 80.7831 19.105C80.1251 18.699 79.7961 18.118 79.7961 17.362C79.7961 16.956 79.9081 16.564 80.1321 16.186C80.3561 15.808 80.7131 15.535 81.2031 15.367C80.3771 14.611 79.9641 13.652 79.9641 12.49C79.9641 11.902 80.0691 11.363 80.2791 10.873C80.5031 10.369 80.8111 9.942 81.2031 9.592C81.6091 9.228 82.0851 8.948 82.6311 8.752C83.1911 8.542 83.8071 8.437 84.4791 8.437C85.3751 8.437 86.1801 8.626 86.8941 9.004C87.1181 8.584 87.4331 8.255 87.8391 8.017C88.2591 7.779 88.7491 7.66 89.3091 7.66C89.4911 7.66 89.6101 7.667 89.6661 7.681V9.361C89.6101 9.347 89.4911 9.34 89.3091 9.34C88.7771 9.34 88.3291 9.501 87.9651 9.823C88.6231 10.565 88.9521 11.454 88.9521 12.49C88.9521 13.078 88.8401 13.624 88.6161 14.128C88.4061 14.618 88.1051 15.038 87.7131 15.388C87.3211 15.738 86.8521 16.011 86.3061 16.207C85.7601 16.403 85.1511 16.501 84.4791 16.501C83.7091 16.501 83.0511 16.389 82.5051 16.165C82.1691 16.165 81.9101 16.242 81.7281 16.396C81.5461 16.55 81.4551 16.76 81.4551 17.026C81.4551 17.25 81.5391 17.446 81.7071 17.614C81.8751 17.768 82.1551 17.845 82.5471 17.845H86.2851C87.3911 17.845 88.2521 18.111 88.8681 18.643C89.4841 19.161 89.7921 19.882 89.7921 20.806ZM81.8751 12.511C81.8751 13.197 82.1061 13.771 82.5681 14.233C83.0441 14.681 83.6671 14.905 84.4371 14.905C85.2351 14.905 85.8651 14.681 86.3271 14.233C86.7891 13.771 87.0201 13.197 87.0201 12.511C87.0201 11.825 86.7891 11.244 86.3271 10.768C85.8791 10.278 85.2561 10.033 84.4581 10.033C83.6881 10.033 83.0651 10.271 82.5891 10.747C82.1131 11.209 81.8751 11.797 81.8751 12.511ZM87.8391 20.806C87.8391 20.372 87.6781 20.043 87.3561 19.819C87.0481 19.609 86.6001 19.504 86.0121 19.504H82.4001C82.2741 19.504 82.1971 19.497 82.1691 19.483C81.7911 19.581 81.5111 19.749 81.3291 19.987C81.1471 20.225 81.0561 20.505 81.0561 20.827C81.0561 21.443 81.3571 21.842 81.9591 22.024C82.5751 22.22 83.4011 22.318 84.4371 22.318C85.5431 22.318 86.3831 22.213 86.9571 22.003C87.5451 21.793 87.8391 21.394 87.8391 20.806ZM96.3449 8.605C96.7229 8.605 97.1009 8.647 97.4789 8.731V10.558C97.0869 10.474 96.7159 10.432 96.3659 10.432C95.4839 10.432 94.7979 10.705 94.3079 11.251C93.8179 11.797 93.5729 12.553 93.5729 13.519V19H91.5779V8.752H93.4259L93.5309 10.012C93.7409 9.55 94.0979 9.2 94.6019 8.962C95.1199 8.724 95.7009 8.605 96.3449 8.605ZM103.828 8.458C104.612 8.458 105.326 8.598 105.97 8.878C106.614 9.144 107.167 9.522 107.629 10.012C108.091 10.488 108.448 11.055 108.7 11.713C108.952 12.371 109.078 13.085 109.078 13.855C109.078 14.625 108.952 15.339 108.7 15.997C108.448 16.655 108.091 17.229 107.629 17.719C107.167 18.195 106.614 18.573 105.97 18.853C105.326 19.119 104.612 19.252 103.828 19.252C103.044 19.252 102.33 19.119 101.686 18.853C101.042 18.573 100.489 18.195 100.027 17.719C99.5648 17.229 99.2008 16.655 98.9348 15.997C98.6828 15.339 98.5568 14.625 98.5568 13.855C98.5568 13.085 98.6828 12.371 98.9348 11.713C99.2008 11.055 99.5648 10.488 100.027 10.012C100.489 9.522 101.042 9.144 101.686 8.878C102.33 8.598 103.044 8.458 103.828 8.458ZM103.828 17.467C104.318 17.467 104.759 17.383 105.151 17.215C105.557 17.033 105.9 16.781 106.18 16.459C106.46 16.137 106.677 15.759 106.831 15.325C106.985 14.877 107.062 14.387 107.062 13.855C107.062 13.323 106.985 12.84 106.831 12.406C106.677 11.958 106.46 11.573 106.18 11.251C105.9 10.929 105.557 10.677 105.151 10.495C104.759 10.313 104.318 10.222 103.828 10.222C103.338 10.222 102.89 10.313 102.484 10.495C102.092 10.677 101.749 10.929 101.455 11.251C101.175 11.573 100.958 11.958 100.804 12.406C100.65 12.84 100.573 13.323 100.573 13.855C100.573 14.387 100.65 14.877 100.804 15.325C100.958 15.759 101.175 16.137 101.455 16.459C101.749 16.781 102.092 17.033 102.484 17.215C102.89 17.383 103.338 17.467 103.828 17.467ZM115.948 8.458C116.732 8.458 117.446 8.598 118.09 8.878C118.734 9.144 119.287 9.522 119.749 10.012C120.211 10.488 120.568 11.055 120.82 11.713C121.072 12.371 121.198 13.085 121.198 13.855C121.198 14.625 121.072 15.339 120.82 15.997C120.568 16.655 120.211 17.229 119.749 17.719C119.287 18.195 118.734 18.573 118.09 18.853C117.446 19.119 116.732 19.252 115.948 19.252C115.164 19.252 114.45 19.119 113.806 18.853C113.162 18.573 112.609 18.195 112.147 17.719C111.685 17.229 111.321 16.655 111.055 15.997C110.803 15.339 110.677 14.625 110.677 13.855C110.677 13.085 110.803 12.371 111.055 11.713C111.321 11.055 111.685 10.488 112.147 10.012C112.609 9.522 113.162 9.144 113.806 8.878C114.45 8.598 115.164 8.458 115.948 8.458ZM115.948 17.467C116.438 17.467 116.879 17.383 117.271 17.215C117.677 17.033 118.02 16.781 118.3 16.459C118.58 16.137 118.797 15.759 118.951 15.325C119.105 14.877 119.182 14.387 119.182 13.855C119.182 13.323 119.105 12.84 118.951 12.406C118.797 11.958 118.58 11.573 118.3 11.251C118.02 10.929 117.677 10.677 117.271 10.495C116.879 10.313 116.438 10.222 115.948 10.222C115.458 10.222 115.01 10.313 114.604 10.495C114.212 10.677 113.869 10.929 113.575 11.251C113.295 11.573 113.078 11.958 112.924 12.406C112.77 12.84 112.693 13.323 112.693 13.855C112.693 14.387 112.77 14.877 112.924 15.325C113.078 15.759 113.295 16.137 113.575 16.459C113.869 16.781 114.212 17.033 114.604 17.215C115.01 17.383 115.458 17.467 115.948 17.467ZM132.277 8.731L128.014 19H126.04L121.882 8.731H124.024L127.069 16.669L130.219 8.731H132.277ZM142.966 14.674H134.818C134.902 15.64 135.231 16.361 135.805 16.837C136.393 17.313 137.107 17.551 137.947 17.551C138.661 17.551 139.263 17.39 139.753 17.068C140.243 16.746 140.621 16.305 140.887 15.745L142.546 16.417C142.154 17.313 141.545 18.013 140.719 18.517C139.907 19.007 138.976 19.252 137.926 19.252C137.184 19.252 136.505 19.126 135.889 18.874C135.273 18.608 134.741 18.244 134.293 17.782C133.859 17.306 133.516 16.739 133.264 16.081C133.026 15.423 132.907 14.695 132.907 13.897C132.907 13.099 133.026 12.364 133.264 11.692C133.502 11.02 133.838 10.446 134.272 9.97C134.72 9.48 135.259 9.102 135.889 8.836C136.519 8.57 137.219 8.437 137.989 8.437C138.731 8.437 139.403 8.57 140.005 8.836C140.621 9.088 141.146 9.452 141.58 9.928C142.028 10.39 142.371 10.957 142.609 11.629C142.847 12.287 142.966 13.029 142.966 13.855V14.674ZM140.95 13.246C140.894 12.224 140.6 11.447 140.068 10.915C139.536 10.383 138.829 10.117 137.947 10.117C137.065 10.117 136.351 10.39 135.805 10.936C135.259 11.468 134.937 12.238 134.839 13.246H140.95Z" fill="white"/>
<defs>
<clipPath id="clip0_43_129">
<rect width="22" height="22" fill="white" transform="translate(0 2.5)"/>
</clipPath>
</defs>
</svg>
